# xmcd CD database file
#
# Track frame offsets:
#	150
#	13575
#	41850
#	55575
#	70575
#	84450
#	116550
#	130200
#	146475
#
# Disc length: 2189 seconds
#
# Revision: 5
# Processed by: cddbd v1.5.1PL0 Copyright (c) Steve Scherf et al.
# Submitted via: CDex 1.51
#
DISCID=74088b09
DTITLE=Molly Hatchet - Molly Hatchet
DYEAR=1978
DGENRE=Rock
TTITLE0=Bounty Hunter
TTITLE1=Gator Country
TTITLE2=Big Apple
TTITLE3=The Creeper
TTITLE4=The Price You Pay
TTITLE5=Dreams I'll Never See
TTITLE6=I'll Be Running
TTITLE7=Cheatin' Woman
TTITLE8=Trust Your Old Friend
EXTD=YEAR: 1978
EXTT0=
EXTT1=
EXTT2=
EXTT3=
EXTT4=
EXTT5=
EXTT6=
EXTT7=
EXTT8=
PLAYORDER=
